#!OML:ASF G:\ViconDB\ViconDB\414\test\team2\shane.ASF
:FULLY-SPECIFIED
:DEGREES
262
root 1.07846 16.7913 25.6027 -13.8829 -5.93233 -3.07963
lowerback 11.0748 2.37815 1.15062
upperback 4.49149 3.27553 0.375876
thorax -1.47711 1.64164 -0.651826
lowerneck -20.8897 -3.45026 -4.91645
upperneck 24.3705 -5.42011 7.60653
head 11.8125 -1.91369 2.77981
rclavicle -2.84371e-014 -1.19271e-015
rhumerus -31.218 23.0091 -93.583
rradius 65.5759
rwrist 25.4745
rhand -34.7231 -8.87603
rfingers 7.12502
rthumb -7.8775 -38.7093
lclavicle -2.84371e-014 -1.19271e-015
lhumerus -41.1398 -2.93192 78.0726
lradius 16.0757
lwrist -28.272
lhand -41.807 9.00821
lfingers 7.12502
lthumb -14.7093 38.4664
rfemur 5.00166 -14.1413 7.74023
rtibia 70.1286
rfoot -2.6006 2.1546
rtoes -12.0809
lfemur 5.99712 10.2304 -11.2779
ltibia 29.8064
lfoot -24.7858 -8.4645
ltoes -5.53843
263
root 1.09325 16.7812 25.7969 -14.1128 -5.42272 -3.26961
lowerback 11.032 2.09992 1.05477
upperback 4.70802 2.89725 0.507514
thorax -1.24745 1.45324 -0.40992
lowerneck -20.9146 -3.43922 -5.15581
upperneck 24.518 -5.36588 7.72145
head 11.881 -1.89515 2.87609
rclavicle 2.59694e-014 3.18055e-015
rhumerus -32.3465 22.1914 -93.2943
rradius 63.208
rwrist 26.5254
rhand -34.1368 -7.9239
rfingers 7.12502
rthumb -7.3116 -37.7776
lclavicle 2.59694e-014 3.18055e-015
lhumerus -39.1417 -3.00856 79.3822
lradius 16.9927
lwrist -29.4905
lhand -42.0958 8.67447
lfingers 7.12502
lthumb -14.9874 38.1121
rfemur 3.62733 -14.9025 7.91854
rtibia 70.7439
rfoot -3.3405 3.45369
rtoes -11.7517
lfemur 7.05716 9.77035 -11.1583
ltibia 29.5162
lfoot -25.342 -8.49144
ltoes -5.68525
264
root 1.09419 16.7739 25.9727 -14.1857 -4.46495 -3.64215
lowerback 11.1728 1.71137 0.847564
upperback 4.81057 2.3681 0.769996
thorax -1.24433 1.18456 0.0368109
lowerneck -21.0574 -3.35155 -5.28971
upperneck 24.7186 -5.19261 7.68799
head 11.9754 -1.82927 2.9193
rclavicle 4.98515e-015 -3.97569e-015
rhumerus -33.5562 21.1879 -92.7065
rradius 60.9436
rwrist 27.9349
rhand -33.0824 -6.80222
rfingers 7.12502
rthumb -6.29373 -36.6887
lclavicle 4.98515e-015 -3.97569e-015
lhumerus -37.2309 -3.17716 80.7311
lradius 18.2327
lwrist -30.7096
lhand -42.4202 7.97351
lfingers 7.12502
lthumb -15.2999 37.3876
rfemur 2.12031 -15.9206 8.49499
rtibia 71.0535
rfoot -4.33881 4.26929
rtoes -12.4398
lfemur 7.81976 9.18136 -10.8513
ltibia 29.2215
lfoot -25.8621 -8.87378
ltoes -5.95923
265
root 1.08401 16.7712 26.179 -14.3983 -4.07817 -4.07954
lowerback 10.9835 1.52322 0.704544
upperback 5.0161 2.10717 1.12887
thorax -0.947721 1.05037 0.528284
lowerneck -21.249 -3.27258 -5.64793
upperneck 24.9826 -5.00225 7.8166
head 12.1145 -1.75522 3.06759
rclavicle -1.83689e-014 -8.34896e-015
rhumerus -34.7777 19.6326 -91.9887
rradius 58.5883
rwrist 29.5836
rhand -32.0037 -5.75057
rfingers 7.12502
rthumb -5.25229 -35.6655
lclavicle -1.83689e-014 -8.34896e-015
lhumerus -35.4172 -3.36405 82.1024
lradius 19.705
lwrist -31.6924
lhand -42.7292 7.49286
lfingers 7.12502
lthumb -15.5976 36.884
rfemur 0.749102 -16.379 9.37192
rtibia 71.0542
rfoot -5.27523 4.99368
rtoes -12.0211
lfemur 8.92833 8.79822 -10.2993
ltibia 28.8461
lfoot -26.2931 -9.12939
ltoes -6.01612
266
root 1.08229 16.7613 26.3797 -14.6514 -3.63197 -4.44591
lowerback 11.0164 1.3336 0.780513
upperback 5.16071 1.86575 1.33053
thorax -0.818209 0.929134 0.723618
lowerneck -21.1146 -3.2875 -5.88586
upperneck 24.9804 -4.95774 7.85605
head 12.0906 -1.75651 3.13114
rclavicle 4.13099e-015 -4.77083e-015
rhumerus -36.0576 17.7006 -91.1946
rradius 56.0434
rwrist 32.0301
rhand -31.1992 -5.00499
rfingers 7.12502
rthumb -4.47545 -34.9377
lclavicle 4.13099e-015 -4.77083e-015
lhumerus -33.7126 -4.6044 83.807
lradius 21.5463
lwrist -30.8101
lhand -43.1232 7.91708
lfingers 7.12502
lthumb -15.977 37.2782
rfemur -0.525205 -16.8858 10.1214
rtibia 70.7636
rfoot -6.45474 5.58101
rtoes -12.4235
lfemur 10.1578 8.36615 -9.89572
ltibia 28.3063
lfoot -26.7141 -9.26915
ltoes -6.36522
267
root 1.08004 16.7513 26.5737 -14.6764 -2.81159 -4.52194
lowerback 10.9706 1.04475 0.426377
upperback 5.1581 1.45092 1.4714
thorax -0.805156 0.715034 1.11681
lowerneck -20.9647 -3.3645 -6.38836
upperneck 25.0157 -4.96297 8.05744
head 12.0949 -1.785 3.29461
rclavicle -1.57226e-014 9.14409e-015
rhumerus -37.3699 15.9196 -90.3454
rradius 53.6713
rwrist 33.342
rhand -30.146 -4.92675
rfingers 7.12502
rthumb -3.45848 -34.8784
lclavicle -1.57226e-014 9.14409e-015
lhumerus -32.1528 -5.7986 85.4596
lradius 23.7249
lwrist -29.0764
lhand -43.445 7.87168
lfingers 7.12502
lthumb -16.2869 37.2077
rfemur -1.99236 -17.8022 10.562
rtibia 70.1738
rfoot -7.64285 5.81447
rtoes -13.9149
lfemur 11.0878 7.91691 -9.86406
ltibia 27.6515
lfoot -26.9673 -9.60735
ltoes -6.63928
